# xmcd
#
# Track frame offsets: 
#        150
#        18169
#        35726
#        49774
#        68091
#        91568
#        110852
#        127468
#        142907
#        161216
#        171529
#        180466
#        200161
#        217171
#        234405
#        248317
#        263408
#        283459
#        294812
#        313959
#
# Disc length: 4412 seconds
#
# Revision: 1
# Processed by: cddbd v1.5.2PL0 Copyright (c) Steve Scherf et al.
# Submitted via: ExactAudioCopy v0.99pb4
#
DISCID=32113a14
DTITLE=Various Artist - 100 Grootste Kerst Hits ... allertijden, De [CD 3)
DYEAR=2006
DGENRE=Christmas
TTITLE0=Veerman, Piet - Happy Christmas (War Is Over)
TTITLE1=Williams, Andy - Mary's Little Boy Child
TTITLE2=Simpson, Jessica - I Saw Mommy Kissing Santa Clause
TTITLE3=Babyface - Rudolph The Red-Nosed Reindeer
TTITLE4=Ten Sharp - When The Snow Falls
TTITLE5=Spears, Britney - My Only Wish (This Year)
TTITLE6=Stevens, Shakin' - Merry Christmas Everyone
TTITLE7=Kitt, Eartha - Santa Baby
TTITLE8=Ginuwine - Christmas Day
TTITLE9=Imagination - Christmas Song
TTITLE10=King Cole, Nat - Caroling, Caroling
TTITLE11=Pasadenas, The - Give A Little Peace
TTITLE12=Colvin, Shawn - I Don't Need Anything This Christmas
TTITLE13=Belafonte, Harry - The Twelve Days Of Christmas
TTITLE14=Vinton, Bobby - The Christmas Tree
TTITLE15=New Kids On The Block - I Still Believe In Santa Clause
TTITLE16=Estefan, Gloria - Love On Layaway
TTITLE17=Conniff, Ray - Sleigh Ride
TTITLE18=Los Del Rio - Macarena Christmas (Joy Mix)
TTITLE19=Glitter, Gary - Another Rock And Roll Christmas
EXTD=YEAR: 2006
EXTT0=
EXTT1=
EXTT2=
EXTT3=
EXTT4=
EXTT5=
EXTT6=
EXTT7=
EXTT8=
EXTT9=
EXTT10=
EXTT11=
EXTT12=
EXTT13=
EXTT14=
EXTT15=
EXTT16=
EXTT17=
EXTT18=
EXTT19=
PLAYORDER=
